<svg width="66" height="24" viewBox="0 0 66 24" fill="none" xmlns="http://www.w3.org/2000/svg">
<rect x="0.5" width="65" height="24" rx="4" fill="#FF9999" fill-opacity="0.2"/>
<path d="M9.25852 16.5V7.77273H11.1037V14.9787H14.8452V16.5H9.25852ZM16.033 16.5V9.95455H17.8484V16.5H16.033ZM16.945 9.1108C16.6751 9.1108 16.4435 9.02131 16.2504 8.84233C16.06 8.66051 15.9648 8.44318 15.9648 8.19034C15.9648 7.94034 16.06 7.72585 16.2504 7.54688C16.4435 7.36506 16.6751 7.27415 16.945 7.27415C17.2148 7.27415 17.445 7.36506 17.6353 7.54688C17.8285 7.72585 17.9251 7.94034 17.9251 8.19034C17.9251 8.44318 17.8285 8.66051 17.6353 8.84233C17.445 9.02131 17.2148 9.1108 16.945 9.1108ZM25.4048 9.95455L23.1165 16.5H21.071L18.7827 9.95455H20.7003L22.0597 14.6378H22.1278L23.483 9.95455H25.4048ZM29.1058 16.6278C28.4325 16.6278 27.853 16.4915 27.3672 16.2188C26.8842 15.9432 26.5121 15.554 26.2507 15.0511C25.9893 14.5455 25.8587 13.9474 25.8587 13.2571C25.8587 12.5838 25.9893 11.9929 26.2507 11.4844C26.5121 10.9759 26.88 10.5795 27.3544 10.2955C27.8317 10.0114 28.3913 9.86932 29.0334 9.86932C29.4652 9.86932 29.8672 9.93892 30.2393 10.0781C30.6143 10.2145 30.9411 10.4205 31.2195 10.696C31.5007 10.9716 31.7195 11.3182 31.8757 11.7358C32.032 12.1506 32.1101 12.6364 32.1101 13.1932V13.6918H26.5831V12.5668H30.4013C30.4013 12.3054 30.3445 12.0739 30.2308 11.8722C30.1172 11.6705 29.9595 11.5128 29.7578 11.3991C29.5589 11.2827 29.3274 11.2244 29.0632 11.2244C28.7876 11.2244 28.5433 11.2884 28.3303 11.4162C28.12 11.5412 27.9553 11.7102 27.8359 11.9233C27.7166 12.1335 27.6555 12.3679 27.6527 12.6264V13.696C27.6527 14.0199 27.7124 14.2997 27.8317 14.5355C27.9538 14.7713 28.1257 14.9531 28.3473 15.081C28.5689 15.2088 28.8317 15.2727 29.1357 15.2727C29.3374 15.2727 29.522 15.2443 29.6896 15.1875C29.8572 15.1307 30.0007 15.0455 30.12 14.9318C30.2393 14.8182 30.3303 14.679 30.3928 14.5142L32.0717 14.625C31.9865 15.0284 31.8118 15.3807 31.5476 15.6818C31.2862 15.9801 30.9482 16.2131 30.5334 16.3807C30.1214 16.5455 29.6456 16.6278 29.1058 16.6278Z" fill="#FF4444"/>
<path d="M49.4974 13.3332C50.2338 13.3332 50.8307 12.7362 50.8307 11.9998C50.8307 11.2635 50.2338 10.6665 49.4974 10.6665C48.761 10.6665 48.1641 11.2635 48.1641 11.9998C48.1641 12.7362 48.761 13.3332 49.4974 13.3332Z" stroke="#FF4444" stroke-linecap="round" stroke-linejoin="round"/>
<path d="M52.3278 9.17329C52.6998 9.54478 52.9948 9.98593 53.1961 10.4715C53.3974 10.9571 53.501 11.4776 53.501 12.0033C53.501 12.529 53.3974 13.0495 53.1961 13.535C52.9948 14.0206 52.6998 14.4618 52.3278 14.8333M46.6745 14.8266C46.3026 14.4551 46.0076 14.014 45.8063 13.5284C45.605 13.0428 45.5014 12.5223 45.5014 11.9966C45.5014 11.471 45.605 10.9505 45.8063 10.4649C46.0076 9.97927 46.3026 9.53811 46.6745 9.16662M54.2145 7.28662C55.4643 8.53681 56.1664 10.2322 56.1664 12C56.1664 13.7677 55.4643 15.4631 54.2145 16.7133M44.7878 16.7133C43.538 15.4631 42.8359 13.7677 42.8359 12C42.8359 10.2322 43.538 8.53681 44.7878 7.28662" stroke="#FF4444" stroke-linecap="round" stroke-linejoin="round"/>
</svg>
